<?xml version="1.0" encoding="UTF-8"?>
<!DOCTYPE svg PUBLIC "-//W3C//DTD SVG 1.1//EN" "http://www.w3.org/Graphics/SVG/1.1/DTD/svg11.dtd">
<!-- Creator: CorelDRAW -->
<svg xmlns="http://www.w3.org/2000/svg" xml:space="preserve" width="210mm" height="75.2128mm" version="1.1" style="shape-rendering:geometricPrecision; text-rendering:geometricPrecision; image-rendering:optimizeQuality; fill-rule:evenodd; clip-rule:evenodd"
viewBox="0 0 21000 7521.28"
 xmlns:xlink="http://www.w3.org/1999/xlink"
 xmlns:xodm="http://www.corel.com/coreldraw/odm/2003">
 <defs>
  <style type="text/css">
   <![CDATA[
    .fil0 {fill:#336699;fill-rule:nonzero}
   ]]>
  </style>
 </defs>
 <g id="Layer_x0020_1">
  <metadata id="CorelCorpID_0Corel-Layer"/>
  <path class="fil0" d="M-7.11 3289.22c0,-212.64 82.31,-418.42 246.94,-617.34 164.62,-198.93 346.39,-390.99 545.32,-576.19 198.92,-185.21 492.16,-406.42 879.71,-663.65 387.55,-257.22 800.83,-487.01 1239.83,-689.36 439,-202.35 977.46,-375.55 1615.38,-519.6 637.93,-144.05 1296.43,-216.07 1975.5,-216.07 589.91,0 1176.39,113.18 1759.43,339.54 294.96,116.61 536.75,286.38 725.38,509.31 188.63,222.93 282.95,481.87 282.95,776.82 0,459.58 -277.8,919.16 -833.41,1378.73 -555.61,459.58 -1526.21,970.61 -2911.81,1533.07 -137.18,34.3 -205.78,82.32 -205.78,144.05 0,20.58 13.72,44.59 41.16,72.02 974.03,1124.94 1776.58,1910.34 2407.64,2356.2 75.45,61.73 113.18,123.47 113.18,185.2 0,150.91 -222.93,226.36 -668.79,226.36 -445.86,0 -816.27,-144.05 -1111.22,-432.14 -1248.41,-1323.86 -2033.8,-2208.72 -2356.19,-2654.58 -6.86,-27.43 -18.87,-41.15 -36.02,-41.15 -17.14,0 -36.01,13.72 -56.59,41.15 -1111.21,1365.02 -1752.57,2260.17 -1924.05,2685.45 0,109.75 -18.86,164.62 -56.59,164.62 -37.73,0 -97.75,-20.58 -180.06,-61.73 -82.31,-41.16 -168.05,-120.04 -257.22,-236.65 -89.18,-116.61 -133.76,-258.94 -133.76,-427 0,-168.05 68.59,-375.55 205.78,-622.48 974.03,-1413.03 2002.94,-2599.71 3086.72,-3560.02 459.57,-404.7 891.71,-720.23 1296.42,-946.59 61.73,-54.88 118.32,-82.31 169.77,-82.31 51.44,0 113.18,24 185.2,72.02 72.02,48.01 108.04,104.6 108.04,169.77 0,65.16 -27.44,121.75 -82.32,169.77 -898.57,905.44 -1515.92,1581.08 -1852.03,2026.94 -89.17,96.03 -133.76,161.2 -133.76,195.49 0,34.3 17.15,51.45 51.45,51.45l41.16 0c823.12,-226.36 1488.48,-452.72 1996.07,-679.08 1076.93,-487.01 1893.19,-1001.47 2448.8,-1543.36 116.61,-109.75 174.91,-216.07 174.91,-318.96 0,-157.76 -132.04,-277.8 -396.12,-360.11 -264.09,-82.32 -682.51,-123.47 -1255.27,-123.47 -572.76,0 -1274.13,85.74 -2104.11,257.22 -829.99,171.49 -1656.54,447.58 -2479.67,828.27 -823.12,380.7 -1433.61,821.41 -1831.45,1322.15 -54.87,61.73 -82.31,104.6 -82.31,128.61 0,24.01 37.73,36.01 113.18,36.01 75.45,0 310.39,-85.74 704.8,-257.22 394.41,-171.49 732.24,-339.54 1013.47,-504.17 439,-294.95 713.38,-442.43 823.13,-442.43 41.15,0 61.73,8.58 61.73,25.72 0,17.15 -42.87,77.17 -128.61,180.06 -85.74,102.89 -205.78,233.22 -360.12,390.99 -154.34,157.76 -344.68,332.68 -571.04,524.74 -514.46,445.86 -987.75,668.79 -1419.89,668.79 -233.22,0 -423.57,-73.74 -571.05,-221.22 -147.47,-147.47 -234.93,-296.66 -262.37,-447.57l-51.44 -216.07zm10824.08 -1275.84c68.59,0 113.18,13.71 133.76,41.15 96.03,116.61 144.04,210.93 144.04,282.95 0,72.02 -20.57,133.76 -61.73,185.2 -41.16,51.45 -90.89,109.75 -149.19,174.92 -58.31,65.16 -174.92,154.33 -349.83,267.51 -174.9,113.18 -344.67,169.77 -509.3,169.77 -123.47,-20.58 -185.2,-96.03 -185.2,-226.36 0,-205.78 123.47,-406.41 370.41,-601.91 246.93,-195.49 449.27,-293.23 607.04,-293.23zm-2469.36 4053.88c-54.88,96.04 -82.32,181.78 -82.32,257.23 0,75.45 41.16,113.18 123.47,113.18 48.02,0 130.33,-20.58 246.94,-61.73 1282.7,-672.22 2537.96,-1464.48 3765.79,-2376.78 61.73,48.02 92.6,106.32 92.6,174.92 0,68.59 -34.3,133.76 -102.89,195.49 -68.6,61.73 -166.34,150.91 -293.24,267.52 -126.9,116.61 -368.69,325.82 -725.38,627.63 -356.69,301.81 -689.37,576.19 -998.03,823.12 -809.41,651.64 -1406.17,1035.77 -1790.3,1152.38 -123.46,34.29 -257.22,51.44 -401.27,51.44 -528.17,0 -792.26,-281.23 -792.26,-843.7 0,-219.5 120.04,-533.32 360.12,-941.45 240.08,-408.13 487.02,-768.25 740.81,-1080.35 253.8,-312.1 421.85,-485.3 504.17,-519.6 123.47,-75.45 257.22,-113.18 401.27,-113.18 144.05,0 281.23,27.44 411.56,82.32 41.16,20.57 61.74,48.01 61.74,82.31 0,34.29 -32.59,85.74 -97.75,154.33 -65.16,68.6 -164.62,174.92 -298.38,318.96 -133.76,144.05 -332.68,392.7 -596.77,745.96 -264.08,353.26 -440.71,649.93 -529.88,890zm3776.07 607.06l82.32 -658.5c0,-20.58 -5.15,-30.87 -15.44,-30.87 -10.29,0 -29.15,13.72 -56.59,41.16 -89.17,96.03 -202.35,214.35 -339.54,354.97 -137.18,140.62 -372.12,329.25 -704.8,565.9 -332.68,236.65 -601.91,354.97 -807.68,354.97 -34.3,-6.86 -77.17,-18.86 -128.61,-36.01 -51.45,-17.15 -118.33,-73.74 -200.64,-169.77 -82.31,-96.03 -123.47,-233.22 -123.47,-411.56 0,-178.35 135.47,-451.01 406.42,-817.98 270.94,-366.98 595.04,-727.1 972.31,-1080.35 377.26,-353.26 797.4,-660.22 1260.41,-920.87 463,-260.66 865.99,-390.99 1208.96,-390.99 130.33,6.86 233.22,99.46 308.67,277.81 68.6,-68.6 130.33,-102.89 185.21,-102.89 54.87,0 120.03,41.15 195.49,123.46 41.15,6.86 82.31,29.16 123.47,66.88 41.15,37.73 61.73,90.89 61.73,159.48 0,68.6 -48.01,144.05 -144.05,226.36 -144.04,178.35 -312.1,380.7 -504.16,607.06 -192.06,226.36 -329.25,389.27 -411.56,488.73 -82.31,99.46 -168.06,210.92 -257.23,334.39 -150.91,212.64 -233.22,384.13 -246.94,514.46 699.66,-336.11 1800.59,-1059.78 3302.79,-2171 61.74,48.02 92.6,106.32 92.6,174.92 0,68.59 -27.43,126.9 -82.31,174.91 -54.87,48.02 -121.75,106.32 -200.64,174.92 -78.88,68.59 -234.93,202.35 -468.15,401.27 -233.22,198.92 -457.86,389.27 -673.93,571.04 -216.07,181.78 -463.01,384.13 -740.81,607.06 -277.81,222.93 -526.46,413.27 -745.96,571.04 -528.17,377.27 -857.42,565.9 -987.75,565.9 -130.33,0 -222.93,-41.16 -277.8,-123.47 -54.88,-82.31 -82.32,-229.79 -82.32,-442.43zm-1049.48 -432.14c82.31,0 334.39,-168.06 756.24,-504.16 421.86,-336.11 821.41,-672.22 1198.68,-1008.33l576.19 -504.17c27.43,-27.43 41.15,-46.3 41.15,-56.59 0,-10.29 -10.29,-15.43 -30.86,-15.43 -260.66,0 -600.2,149.19 -1018.62,447.57 -418.42,298.39 -780.25,613.92 -1085.5,946.6 -305.24,332.68 -457.86,557.32 -457.86,673.93 0,13.72 6.86,20.58 20.58,20.58zm5484.06 -2541.4c54.88,0 145.77,27.44 272.66,82.31 126.9,54.88 190.35,116.61 190.35,185.21 0,48.01 -17.15,96.03 -51.44,144.04l-771.68 1070.07c-89.17,109.75 -133.76,171.48 -133.76,185.2 0,13.72 3.43,20.58 10.29,20.58l51.44 -30.87c795.69,-555.61 1450.76,-1042.62 1965.21,-1461.05 96.04,-68.59 176.63,-102.89 241.8,-102.89 65.16,0 108.03,6.86 128.61,20.58l288.09 82.31c68.6,34.3 102.89,78.89 102.89,133.76 0,54.88 -13.71,99.46 -41.15,133.76 -130.33,144.05 -279.52,306.96 -447.58,488.73 -168.05,181.77 -293.23,318.96 -375.55,411.56 -82.31,92.6 -174.91,197.21 -277.8,313.82 -102.89,116.61 -176.63,205.78 -221.22,267.51 -44.58,61.74 -94.31,132.05 -149.19,210.93 -54.87,78.88 -92.6,145.76 -113.18,200.64 -41.15,157.76 -61.73,294.95 -61.73,411.56 0,61.73 39.44,92.6 118.32,92.6 78.89,0 222.93,-48.02 432.14,-144.05 209.21,-96.03 459.58,-243.5 751.1,-442.43 291.53,-198.92 679.08,-481.87 1162.67,-848.84 483.58,-366.98 907.15,-677.37 1270.7,-931.16 61.73,48.01 92.6,106.32 92.6,174.91 0,68.59 -30.87,130.33 -92.6,185.2 -219.5,212.64 -497.31,478.44 -833.42,797.41 -336.11,318.96 -848.84,745.95 -1538.21,1280.98 -689.37,535.03 -1171.24,802.55 -1445.61,802.55 -528.18,0 -792.26,-281.23 -792.26,-843.7 0,-212.64 82.31,-435.57 246.94,-668.79l442.43 -607.06c41.15,-61.73 61.73,-97.74 61.73,-108.03 0,-10.29 -20.58,1.71 -61.73,36.01 -1193.54,994.61 -1954.93,1577.66 -2284.18,1749.14 -54.87,34.3 -123.46,51.45 -205.78,51.45 -226.36,0 -339.54,-102.89 -339.54,-308.68 0,-68.59 17.15,-130.32 51.45,-185.2 507.59,-466.44 864.28,-847.13 1070.06,-1142.08 164.63,-164.63 337.83,-394.42 519.6,-689.37 181.77,-294.95 336.11,-538.46 463.01,-730.53 126.9,-192.06 228.07,-288.09 303.52,-288.09z"/>
 </g>
</svg>
